<?xml version="1.0" encoding="utf-8"?>
<!-- Generator: Adobe Illustrator 17.1.0, SVG Export Plug-In . SVG Version: 6.00 Build 0)  -->
<!DOCTYPE svg PUBLIC "-//W3C//DTD SVG 1.1//EN" "http://www.w3.org/Graphics/SVG/1.1/DTD/svg11.dtd">
<svg version="1.1" id="Layer_1" xmlns="http://www.w3.org/2000/svg" xmlns:xlink="http://www.w3.org/1999/xlink" x="0px" y="0px"
	 viewBox="0 0 800 600" enable-background="new 0 0 800 600" xml:space="preserve">
<g id="Layer_1_1_">
	<path fill="#3366CC" d="M395.2,279.6V84.7c107.6,0,194.9,87.2,194.9,194.9c0,33.9-8.9,67.2-25.7,96.7L395.2,279.6L395.2,279.6"/>
	<text transform="matrix(1 0 0 1 452.5374 231.1166)" fill="#FFFFFF" font-family="'ApercuPro'" font-size="15">$7,740</text>
	<g>
		<path fill="#DC3912" d="M395.2,279.6l169.2,96.7c-22.4,39.2-57.7,69.4-99.8,85.4L395.2,279.6L395.2,279.6"/>
	</g>
	<g>
		<path fill="#CCCCCC" d="M395.2,279.6L381.8,85.2c4.5-0.3,9-0.5,13.5-0.5V279.6L395.2,279.6"/>
	</g>
	<g>
		<path fill="#6633CC" d="M395.2,279.6L380,85.3c0.6,0,1.1-0.1,1.7-0.1L395.2,279.6L395.2,279.6"/>
	</g>
	<g>
		<path fill="#AAAA11" d="M395.2,279.6L378,85.5c0.7-0.1,1.3-0.1,2-0.2L395.2,279.6L395.2,279.6"/>
	</g>
	<g>
		<path fill="#22AA99" d="M395.2,279.6L375.7,85.7c0.8-0.1,1.6-0.2,2.4-0.2L395.2,279.6L395.2,279.6"/>
	</g>
	<g>
		<path fill="#994499" d="M395.2,279.6L373.2,86c0.9-0.1,1.7-0.2,2.6-0.3L395.2,279.6L395.2,279.6"/>
	</g>
	<g>
		<path fill="#316395" d="M395.2,279.6L370.4,86.3c0.9-0.1,1.7-0.2,2.6-0.3L395.2,279.6L395.2,279.6"/>
	</g>
	<g>
		<path fill="#B82E2E" d="M395.2,279.6L367.8,86.7c0.9-0.1,1.8-0.3,2.7-0.4L395.2,279.6L395.2,279.6"/>
	</g>
	<g>
		<path fill="#66AA00" d="M395.2,279.6L365,87.1c0.9-0.1,1.8-0.3,2.8-0.4L395.2,279.6L395.2,279.6"/>
	</g>
	<g>
		<path fill="#DD4477" d="M395.2,279.6L362,87.6c1-0.2,2-0.3,3-0.5L395.2,279.6L395.2,279.6"/>
	</g>
	<g>
		<path fill="#0099C6" d="M395.2,279.6L358.8,88.2c1-0.2,2-0.4,3.1-0.6L395.2,279.6L395.2,279.6"/>
	</g>
	<g>
		<path fill="#990099" d="M395.2,279.6L355.7,88.8c1.1-0.2,2.2-0.4,3.3-0.7L395.2,279.6L395.2,279.6"/>
	</g>
	<g>
		<path fill="#109618" d="M395.2,279.6l-43-190.1c1.1-0.3,2.2-0.5,3.4-0.7L395.2,279.6L395.2,279.6"/>
	</g>
	<g>
		<path fill="#FF9900" d="M395.2,279.6L348.8,90.3c1.1-0.3,2.3-0.6,3.4-0.8L395.2,279.6L395.2,279.6"/>
	</g>
	<g>
		<path fill="#DC3912" d="M395.2,279.6L344.8,91.4c1.3-0.4,2.6-0.7,3.9-1L395.2,279.6L395.2,279.6"/>
	</g>
	<g>
		<path fill="#3366CC" d="M395.2,279.6L340.8,92.5c1.4-0.4,2.7-0.8,4.1-1.1L395.2,279.6L395.2,279.6"/>
	</g>
	<g>
		<path fill="#743411" d="M395.2,279.6L336.5,93.8c1.4-0.5,2.9-0.9,4.3-1.3L395.2,279.6L395.2,279.6"/>
	</g>
	<g>
		<path fill="#0C5922" d="M395.2,279.6L332,95.3c1.4-0.5,2.9-1,4.4-1.4L395.2,279.6L395.2,279.6"/>
	</g>
	<g>
		<path fill="#BEA413" d="M395.2,279.6L327.5,96.9c1.5-0.6,3.1-1.1,4.6-1.6L395.2,279.6L395.2,279.6"/>
	</g>
	<g>
		<path fill="#668D1C" d="M395.2,279.6L322.8,98.7c1.6-0.6,3.1-1.2,4.7-1.8L395.2,279.6L395.2,279.6"/>
	</g>
	<g>
		<path fill="#2A778D" d="M395.2,279.6L318,100.7c1.6-0.7,3.2-1.4,4.9-2L395.2,279.6L395.2,279.6"/>
	</g>
	<g>
		<path fill="#A9C413" d="M395.2,279.6L312.8,103c1.7-0.8,3.4-1.6,5.1-2.3L395.2,279.6L395.2,279.6"/>
	</g>
	<g>
		<path fill="#9C5935" d="M395.2,279.6l-87.6-174.1c1.7-0.9,3.4-1.7,5.2-2.5L395.2,279.6L395.2,279.6"/>
	</g>
	<g>
		<path fill="#F4359E" d="M395.2,279.6l-92.9-171.3c1.8-1,3.6-1.9,5.3-2.8L395.2,279.6L395.2,279.6"/>
	</g>
	<g>
		<path fill="#B91383" d="M395.2,279.6L297,111.3c1.7-1,3.5-2,5.3-3L395.2,279.6L395.2,279.6"/>
	</g>
	<g>
		<path fill="#16D620" d="M395.2,279.6l-104-164.8c1.9-1.2,3.8-2.4,5.8-3.5L395.2,279.6L395.2,279.6"/>
	</g>
	<g>
		<path fill="#B77322" d="M395.2,279.6L285,118.9c2-1.4,4.1-2.8,6.2-4.1L395.2,279.6L395.2,279.6"/>
	</g>
	<g>
		<path fill="#3B3EAC" d="M395.2,279.6l-118-155.1c2.6-2,5.2-3.8,7.8-5.7L395.2,279.6L395.2,279.6"/>
	</g>
	<g>
		<path fill="#5574A6" d="M395.2,279.6l-125.6-149c2.5-2.1,5-4.1,7.6-6.1L395.2,279.6L395.2,279.6"/>
	</g>
	<g>
		<path fill="#329262" d="M395.2,279.6L262,137.3c2.5-2.3,5-4.5,7.6-6.7L395.2,279.6L395.2,279.6"/>
	</g>
	<g>
		<path fill="#651067" d="M395.2,279.6L254,145.4c2.6-2.8,5.3-5.5,8.1-8.1L395.2,279.6L395.2,279.6"/>
	</g>
	<g>
		<path fill="#8B0707" d="M395.2,279.6L244.5,156.2c3-3.7,6.2-7.3,9.5-10.8L395.2,279.6L395.2,279.6"/>
	</g>
	<g>
		<path fill="#E67300" d="M395.2,279.6L233.9,170.3c3.3-4.8,6.8-9.5,10.5-14.1L395.2,279.6L395.2,279.6"/>
	</g>
	<g>
		<path fill="#6633CC" d="M395.2,279.6l-172-91.7c3.2-6.1,6.8-12,10.7-17.7L395.2,279.6L395.2,279.6"/>
	</g>
	<g>
		<path fill="#AAAA11" d="M395.2,279.6l-180.7-72.8c2.6-6.4,5.5-12.7,8.8-18.8L395.2,279.6L395.2,279.6"/>
	</g>
	<g>
		<path fill="#22AA99" d="M395.2,279.6l-188.5-49.5c2.1-7.9,4.7-15.7,7.7-23.4L395.2,279.6L395.2,279.6"/>
	</g>
	<g>
		<path fill="#994499" d="M395.2,279.6l-193.6-21.8c1.1-9.3,2.8-18.6,5.2-27.7L395.2,279.6L395.2,279.6"/>
	</g>
	<g>
		<path fill="#316395" d="M395.2,279.6l-194.7,7.3c-0.4-9.7,0-19.4,1.1-29.1L395.2,279.6L395.2,279.6"/>
	</g>
	<g>
		<path fill="#B82E2E" d="M395.2,279.6l-191,38.5c-2.1-10.3-3.3-20.7-3.7-31.1L395.2,279.6L395.2,279.6"/>
	</g>
	<g>
		<path fill="#66AA00" d="M395.2,279.6l-178.2,78.9c-5.7-13-10-26.5-12.8-40.4L395.2,279.6L395.2,279.6"/>
	</g>
	<g>
		<path fill="#DD4477" d="M395.2,279.6L239.1,396.1c-8.7-11.7-16.1-24.3-22-37.7L395.2,279.6L395.2,279.6"/>
	</g>
	<g>
		<path fill="#0099C6" d="M395.2,279.6L270.5,429.3c-11.8-9.8-22.3-20.9-31.5-33.2L395.2,279.6L395.2,279.6"/>
	</g>
	<g>
		<path fill="#990099" d="M395.2,279.6L315,457.2c-16-7.2-31-16.6-44.5-27.8L395.2,279.6L395.2,279.6"/>
	</g>
	<g>
		<path fill="#109618" d="M395.2,279.6l-21.1,193.7c-20.4-2.2-40.4-7.7-59.1-16.1L395.2,279.6L395.2,279.6"/>
	</g>
	<g>
		<path fill="#FF9900" d="M395.2,279.6l69.4,182.1c-28.8,11-59.8,15-90.5,11.6L395.2,279.6L395.2,279.6"/>
	</g>
	<g>
		<text transform="matrix(1 0 0 1 726.6144 215.5811)" fill="#3366CC" font-family="'ApercuPro-Bold'" font-size="15">Rent</text>
	</g>
	<g>
		<text transform="matrix(1 0 0 1 716.7644 244.8464)" fill="#9E9E9E" font-family="'ApercuPro'" font-size="15">33.3%</text>
	</g>
	<path fill="none" stroke="#000000" stroke-opacity="0.7" d="M522,225.6h68l0,0h169.1"/>
	<circle cx="522" cy="225.6" r="2"/>
	<g>
		<text transform="matrix(1 0 0 1 704.9438 337.6407)" fill="#DC3912" font-family="'ApercuPro-Bold'" font-size="15">Amazon</text>
	</g>
	<g>
		<text transform="matrix(1 0 0 1 719.1638 366.9089)" fill="#9E9E9E" font-family="'ApercuPro'" font-size="15">10.9%</text>
	</g>
	<path fill="none" stroke="#000000" stroke-opacity="0.7" d="M501.8,392.1H590v-44.5h169.1"/>
	<circle cx="501.8" cy="392.1" r="2"/>
	<g>
		<text transform="matrix(1 0 0 1 626.5249 426.9551)" fill="#FF9900" font-family="'ApercuPro-Bold'" font-size="15">The Company Corp</text>
	</g>
	<g>
		<text transform="matrix(1 0 0 1 726.0339 456.2233)" fill="#9E9E9E" font-family="'ApercuPro'" font-size="15">7.5%</text>
	</g>
	<path fill="none" stroke="#000000" stroke-opacity="0.7" d="M414.5,454.8h175.6V437h169.1"/>
	<circle cx="414.5" cy="454.8" r="2"/>
	<g>
		<text transform="matrix(1 0 0 1 40.7531 426.9551)" fill="#109618" font-family="'ApercuPro-Bold'" font-size="15">B&amp;H Photo</text>
	</g>
	<g>
		<text transform="matrix(1 0 0 1 40.7533 456.2233)" fill="#9E9E9E" font-family="'ApercuPro'" font-size="15">5%</text>
	</g>
	<path fill="none" stroke="#000000" stroke-opacity="0.7" d="M356.6,420.7H169.9v16.2H40.7"/>
	<circle cx="357.6" cy="420.7" r="2"/>
	<g>
		<text transform="matrix(1 0 0 1 40.7531 337.6407)" fill="#990099" font-family="'ApercuPro-Bold'" font-size="15">Eyebeam</text>
	</g>
	<g>
		<text transform="matrix(1 0 0 1 40.7533 366.9089)" fill="#9E9E9E" font-family="'ApercuPro'" font-size="15">4.3%</text>
	</g>
	<path fill="none" stroke="#000000" stroke-opacity="0.7" d="M318,404.5H169.9v-56.8H40.7"/>
	<circle cx="319.1" cy="404.5" r="2"/>
	<g>
		<text transform="matrix(1 0 0 1 40.7531 272.3394)" fill="#66AA00" font-family="'ApercuPro-Bold'" font-size="15">Staples</text>
	</g>
	<g>
		<text transform="matrix(1 0 0 1 40.7533 301.6057)" fill="#9E9E9E" font-family="'ApercuPro'" font-size="15">3.7%</text>
	</g>
	<path fill="none" stroke="#000000" stroke-opacity="0.7" d="M276.1,386.2h-88.3V282.3H40.7"/>
	<circle cx="277.2" cy="386.2" r="2"/>
	<text transform="matrix(1 0 0 1 444.5374 365.4223)" fill="#FFFFFF" font-family="'ApercuPro'" font-size="15">$2,547</text>
	<text transform="matrix(1 0 0 1 392.2273 435.9473)" fill="#FFFFFF" font-family="'ApercuPro'" font-size="15">$1,750</text>
	<text transform="matrix(1 0 0 1 40.7531 513.07)" fill="#9E9E9E" font-family="'Apercu-Light'" font-size="9.75">source: http://github.com/sfpc/open-administration/01/data/130910-140121/expenses-by-vendor.csv</text>
</g>
<g id="Layer_2">
</g>
</svg>
