<?xml version="1.0" encoding="utf-8"?>
<!-- Generator: Adobe Illustrator 17.1.0, SVG Export Plug-In . SVG Version: 6.00 Build 0)  -->
<!DOCTYPE svg PUBLIC "-//W3C//DTD SVG 1.1//EN" "http://www.w3.org/Graphics/SVG/1.1/DTD/svg11.dtd">
<svg version="1.1" id="Layer_1" xmlns="http://www.w3.org/2000/svg" xmlns:xlink="http://www.w3.org/1999/xlink" x="0px" y="0px"
	 viewBox="-100 -20 800 600" enable-background="new -100 -20 800 600" xml:space="preserve">
<g>
	<path fill="#3366CC" stroke="#FFFFFF" d="M328.8,273.9V130.7c79.1,0,143.2,64.1,143.2,143.2c0,69.1-49.4,128.3-117.2,140.9
		L328.8,273.9L328.8,273.9"/>
	<text transform="matrix(1 0 0 1 406.5234 268.6231)" fill="#FFFFFF" font-family="'ApercuPro'" font-size="12.75">$24,607</text>
	<path fill="#CCCCCC" stroke="#FFFFFF" d="M328.8,273.9l-0.3-143.2c0.1,0,0.2,0,0.3,0V273.9L328.8,273.9"/>
	<path fill="#994499" stroke="#FFFFFF" d="M328.8,273.9L326,130.7c0.8,0,1.7,0,2.6,0L328.8,273.9L328.8,273.9"/>
	<path fill="#316395" stroke="#FFFFFF" d="M328.8,273.9l-6.6-143.1c1.3-0.1,2.5-0.1,3.8-0.1L328.8,273.9L328.8,273.9"/>
	<path fill="#B82E2E" stroke="#FFFFFF" d="M328.8,273.9l-10.7-142.9c1.4-0.1,2.8-0.2,4.1-0.2L328.8,273.9L328.8,273.9"/>
	<path fill="#66AA00" stroke="#FFFFFF" d="M328.8,273.9l-15.2-142.4c1.5-0.1,3-0.3,4.5-0.4L328.8,273.9L328.8,273.9"/>
	<path fill="#DD4477" stroke="#FFFFFF" d="M328.8,273.9l-36.7-138.5c7.1-1.9,14.2-3.1,21.4-4L328.8,273.9L328.8,273.9"/>
	<path fill="#0099C6" stroke="#FFFFFF" d="M328.8,273.9L264,146.1c9-4.6,18.4-8.2,28.1-10.7L328.8,273.9L328.8,273.9"/>
	<path fill="#990099" stroke="#FFFFFF" d="M328.8,273.9l-99.8-102.8c10.3-10,22.1-18.4,34.9-24.9L328.8,273.9L328.8,273.9"/>
	<path fill="#109618" stroke="#FFFFFF" d="M328.8,273.9L186,262.5c2.8-34.7,18.1-67.2,43.1-91.4L328.8,273.9L328.8,273.9"/>
	<text transform="matrix(1 0 0 1 209.8037 231.2061)" fill="#FFFFFF" font-family="'ApercuPro'" font-size="12.75">$5,996</text>
	<path fill="#FF9900" stroke="#FFFFFF" d="M328.8,273.9l-97.5,104.9c-32.1-29.8-48.8-72.7-45.3-116.4L328.8,273.9L328.8,273.9"/>
	<text transform="matrix(1 0 0 1 206.8564 318.5888)" fill="#FFFFFF" font-family="'ApercuPro'" font-size="12.75">$7,500</text>
	<path fill="#DC3912" stroke="#FFFFFF" d="M328.8,273.9l25.9,140.9c-44.6,8.2-90.3-5.1-123.5-35.9L328.8,273.9L328.8,273.9"/>
	<text transform="matrix(1 0 0 1 277.0273 391.8663)" fill="#FFFFFF" font-family="'ApercuPro'" font-size="12.75">$7,744</text>
	<g>
		<text transform="matrix(1 0 0 1 497.2812 258.3779)" fill="#3366CC" font-family="'ApercuPro-Bold'" font-size="12.75">Subcontractors</text>
	</g>
	<g>
		<text transform="matrix(1 0 0 1 557.4472 279.0078)" fill="#9E9E9E" font-family="'ApercuPro'" font-size="12.75">47.1%</text>
	</g>
	<g>
		<path fill="none" stroke="#000000" stroke-opacity="0.7" d="M463.5,264.6h27.2l0,0H589"/>
		<circle fill-opacity="0.7" cx="463.5" cy="264.6" r="1.5"/>
	</g>
	<g>
		<text transform="matrix(1 0 0 1 11.0087 356.6279)" fill="#DC3912" font-family="'ApercuPro-Bold'" font-size="12.75">Office Expenses</text>
	</g>
	<g>
		<text transform="matrix(1 0 0 1 11.0087 377.2578)" fill="#9E9E9E" font-family="'ApercuPro'" font-size="12.75">14.8%</text>
	</g>
	<path fill="none" stroke="#000000" stroke-opacity="0.7" d="M269.9,362.8h-96.8l0,0H11.4"/>
	<circle fill-opacity="0.7" cx="269.9" cy="362.8" r="1.5"/>
	<g>
		<text transform="matrix(1 0 0 1 11.0087 299.6279)" fill="#FF9900" font-family="'ApercuPro-Bold'" font-size="12.75">Rent or Lease</text>
	</g>
	<g>
		<text transform="matrix(1 0 0 1 11.0087 320.2578)" fill="#9E9E9E" font-family="'ApercuPro'" font-size="12.75">14.4%</text>
	</g>
	<path fill="none" stroke="#000000" stroke-opacity="0.7" d="M202.7,305.8h-29.6l0,0H11.4"/>
	<circle fill-opacity="0.7" cx="202.7" cy="305.8" r="1.5"/>
	<g>
		<text transform="matrix(1 0 0 1 11.0087 242.6279)" fill="#109618" font-family="'ApercuPro-Bold'" font-size="12.75">Supplies</text>
	</g>
	<g>
		<text transform="matrix(1 0 0 1 11.0087 263.2578)" fill="#9E9E9E" font-family="'ApercuPro'" font-size="12.75">11.5%</text>
	</g>
	<path fill="none" stroke="#000000" stroke-opacity="0.7" d="M204.2,248.8h-31.1l0,0H11.4"/>
	<circle fill-opacity="0.7" cx="204.7" cy="248.8" r="1.5"/>
	<g>
		<text transform="matrix(1 0 0 1 11.0087 197.6279)" fill="#990099" font-family="'ApercuPro-Bold'" font-size="12.75">Tuition Reimbursement</text>
	</g>
	<g>
		<text transform="matrix(1 0 0 1 11.0087 218.2578)" fill="#9E9E9E" font-family="'ApercuPro'" font-size="12.75">4.8%</text>
	</g>
	<path fill="none" stroke="#000000" stroke-opacity="0.7" d="M266.9,194.1h-93.8v9.8H11.4"/>
	<circle fill-opacity="0.7" cx="266.9" cy="194.1" r="1.5"/>
	<g>
		<text transform="matrix(1 0 0 1 11.0087 153.3779)" fill="#0099C6" font-family="'ApercuPro-Bold'" font-size="12.75">Legal &amp; Professional Fees</text>
	</g>
	<g>
		<text transform="matrix(1 0 0 1 11.0087 174.0078)" fill="#9E9E9E" font-family="'ApercuPro'" font-size="12.75">3.3%</text>
	</g>
	<path fill="none" stroke="#000000" stroke-opacity="0.7" d="M290.9,173.8H173.2v-14.2H11.4"/>
	<circle fill-opacity="0.7" cx="290.9" cy="173.8" r="1.5"/>
	<rect x="11" y="441.9" fill="none" width="523.3" height="25.5"/>
	<text transform="matrix(1 0 0 1 11.0087 448.7724)" fill="#9E9E9E" font-family="'Apercu-Light'" font-size="9.75">source: http://github.com/sfpc/open-administration/01/data/130910-140121/expenses-by-category.csv</text>
</g>
</svg>
