<?xml version="1.0" encoding="utf-8"?>
<!-- Generator: Adobe Illustrator 17.1.0, SVG Export Plug-In . SVG Version: 6.00 Build 0)  -->
<!DOCTYPE svg PUBLIC "-//W3C//DTD SVG 1.1//EN" "http://www.w3.org/Graphics/SVG/1.1/DTD/svg11.dtd">
<svg version="1.1" xmlns="http://www.w3.org/2000/svg" xmlns:xlink="http://www.w3.org/1999/xlink" x="0px" y="0px"
	 viewBox="318 937 800 600" enable-background="new 318 937 800 600" xml:space="preserve">
<g id="Layer_1">
	<path fill="#3366CC" d="M703.4,1198.3v-194.9c107.6,0,194.9,87.2,194.9,194.9c0,33.9-8.9,67.2-25.7,96.7L703.4,1198.3L703.4,1198.3
		"/>
	<text transform="matrix(1 0 0 1 760.6874 1149.8191)" fill="#FFFFFF" font-family="'ApercuPro'" font-size="15">$7,740</text>
	<g>
		<path fill="#DC3912" d="M703.4,1198.3l169.2,96.7c-22.4,39.2-57.7,69.4-99.8,85.4L703.4,1198.3L703.4,1198.3"/>
	</g>
	<g>
		<path fill="#CCCCCC" d="M703.4,1198.3l-13.5-194.4c4.5-0.3,9-0.5,13.5-0.5V1198.3L703.4,1198.3"/>
	</g>
	<g>
		<path fill="#6633CC" d="M703.4,1198.3l-15.2-194.3c0.6,0,1.1-0.1,1.7-0.1L703.4,1198.3L703.4,1198.3"/>
	</g>
	<g>
		<path fill="#AAAA11" d="M703.4,1198.3l-17.2-194.1c0.7-0.1,1.3-0.1,2-0.2L703.4,1198.3L703.4,1198.3"/>
	</g>
	<g>
		<path fill="#22AA99" d="M703.4,1198.3l-19.6-193.9c0.8-0.1,1.6-0.2,2.4-0.2L703.4,1198.3L703.4,1198.3"/>
	</g>
	<g>
		<path fill="#994499" d="M703.4,1198.3l-22.1-193.6c0.9-0.1,1.7-0.2,2.6-0.3L703.4,1198.3L703.4,1198.3"/>
	</g>
	<g>
		<path fill="#316395" d="M703.4,1198.3L678.6,1005c0.9-0.1,1.7-0.2,2.6-0.3L703.4,1198.3L703.4,1198.3"/>
	</g>
	<g>
		<path fill="#B82E2E" d="M703.4,1198.3l-27.5-192.9c0.9-0.1,1.8-0.3,2.7-0.4L703.4,1198.3L703.4,1198.3"/>
	</g>
	<g>
		<path fill="#66AA00" d="M703.4,1198.3l-30.3-192.5c0.9-0.1,1.8-0.3,2.8-0.4L703.4,1198.3L703.4,1198.3"/>
	</g>
	<g>
		<path fill="#DD4477" d="M703.4,1198.3l-33.3-192c1-0.2,2-0.3,3-0.5L703.4,1198.3L703.4,1198.3"/>
	</g>
	<g>
		<path fill="#0099C6" d="M703.4,1198.3L667,1006.9c1-0.2,2-0.4,3.1-0.6L703.4,1198.3L703.4,1198.3"/>
	</g>
	<g>
		<path fill="#990099" d="M703.4,1198.3l-39.6-190.8c1.1-0.2,2.2-0.4,3.3-0.7L703.4,1198.3L703.4,1198.3"/>
	</g>
	<g>
		<path fill="#109618" d="M703.4,1198.3l-43-190.1c1.1-0.3,2.2-0.5,3.4-0.7L703.4,1198.3L703.4,1198.3"/>
	</g>
	<g>
		<path fill="#FF9900" d="M703.4,1198.3l-46.4-189.3c1.1-0.3,2.3-0.6,3.4-0.8L703.4,1198.3L703.4,1198.3"/>
	</g>
	<g>
		<path fill="#DC3912" d="M703.4,1198.3L653,1010.1c1.3-0.4,2.6-0.7,3.9-1L703.4,1198.3L703.4,1198.3"/>
	</g>
	<g>
		<path fill="#3366CC" d="M703.4,1198.3l-54.5-187.1c1.4-0.4,2.7-0.8,4.1-1.1L703.4,1198.3L703.4,1198.3"/>
	</g>
	<g>
		<path fill="#743411" d="M703.4,1198.3l-58.8-185.8c1.4-0.5,2.9-0.9,4.3-1.3L703.4,1198.3L703.4,1198.3"/>
	</g>
	<g>
		<path fill="#0C5922" d="M703.4,1198.3L640.2,1014c1.4-0.5,2.9-1,4.4-1.4L703.4,1198.3L703.4,1198.3"/>
	</g>
	<g>
		<path fill="#BEA413" d="M703.4,1198.3l-67.7-182.7c1.5-0.6,3.1-1.1,4.6-1.6L703.4,1198.3L703.4,1198.3"/>
	</g>
	<g>
		<path fill="#668D1C" d="M703.4,1198.3l-72.4-180.9c1.6-0.6,3.1-1.2,4.7-1.8L703.4,1198.3L703.4,1198.3"/>
	</g>
	<g>
		<path fill="#2A778D" d="M703.4,1198.3l-77.3-178.9c1.6-0.7,3.2-1.4,4.9-2L703.4,1198.3L703.4,1198.3"/>
	</g>
	<g>
		<path fill="#A9C413" d="M703.4,1198.3l-82.4-176.6c1.7-0.8,3.4-1.6,5.1-2.3L703.4,1198.3L703.4,1198.3"/>
	</g>
	<g>
		<path fill="#9C5935" d="M703.4,1198.3l-87.6-174.1c1.7-0.9,3.4-1.7,5.2-2.5L703.4,1198.3L703.4,1198.3"/>
	</g>
	<g>
		<path fill="#F4359E" d="M703.4,1198.3l-92.9-171.3c1.8-1,3.6-1.9,5.3-2.8L703.4,1198.3L703.4,1198.3"/>
	</g>
	<g>
		<path fill="#B91383" d="M703.4,1198.3L605.2,1030c1.7-1,3.5-2,5.3-3L703.4,1198.3L703.4,1198.3"/>
	</g>
	<g>
		<path fill="#16D620" d="M703.4,1198.3l-104-164.8c1.9-1.2,3.8-2.4,5.8-3.5L703.4,1198.3L703.4,1198.3"/>
	</g>
	<g>
		<path fill="#B77322" d="M703.4,1198.3l-110.2-160.7c2-1.4,4.1-2.8,6.2-4.1L703.4,1198.3L703.4,1198.3"/>
	</g>
	<g>
		<path fill="#3B3EAC" d="M703.4,1198.3l-118-155.1c2.6-2,5.2-3.8,7.8-5.7L703.4,1198.3L703.4,1198.3"/>
	</g>
	<g>
		<path fill="#5574A6" d="M703.4,1198.3l-125.6-149c2.5-2.1,5-4.1,7.6-6.1L703.4,1198.3L703.4,1198.3"/>
	</g>
	<g>
		<path fill="#329262" d="M703.4,1198.3L570.2,1056c2.5-2.3,5-4.5,7.6-6.7L703.4,1198.3L703.4,1198.3"/>
	</g>
	<g>
		<path fill="#651067" d="M703.4,1198.3l-141.3-134.2c2.6-2.8,5.3-5.5,8.1-8.1L703.4,1198.3L703.4,1198.3"/>
	</g>
	<g>
		<path fill="#8B0707" d="M703.4,1198.3l-150.8-123.4c3-3.7,6.2-7.3,9.5-10.8L703.4,1198.3L703.4,1198.3"/>
	</g>
	<g>
		<path fill="#E67300" d="M703.4,1198.3L542.1,1089c3.3-4.8,6.8-9.5,10.5-14.1L703.4,1198.3L703.4,1198.3"/>
	</g>
	<g>
		<path fill="#6633CC" d="M703.4,1198.3l-172-91.7c3.2-6.1,6.8-12,10.7-17.7L703.4,1198.3L703.4,1198.3"/>
	</g>
	<g>
		<path fill="#AAAA11" d="M703.4,1198.3l-180.7-72.8c2.6-6.4,5.5-12.7,8.8-18.8L703.4,1198.3L703.4,1198.3"/>
	</g>
	<g>
		<path fill="#22AA99" d="M703.4,1198.3l-188.5-49.5c2.1-7.9,4.7-15.7,7.7-23.4L703.4,1198.3L703.4,1198.3"/>
	</g>
	<g>
		<path fill="#994499" d="M703.4,1198.3l-193.6-21.8c1.1-9.3,2.8-18.6,5.2-27.7L703.4,1198.3L703.4,1198.3"/>
	</g>
	<g>
		<path fill="#316395" d="M703.4,1198.3l-194.7,7.3c-0.4-9.7,0-19.4,1.1-29.1L703.4,1198.3L703.4,1198.3"/>
	</g>
	<g>
		<path fill="#B82E2E" d="M703.4,1198.3l-191,38.5c-2.1-10.3-3.3-20.7-3.7-31.1L703.4,1198.3L703.4,1198.3"/>
	</g>
	<g>
		<path fill="#66AA00" d="M703.4,1198.3l-178.2,78.9c-5.7-13-10-26.5-12.8-40.4L703.4,1198.3L703.4,1198.3"/>
	</g>
	<g>
		<path fill="#DD4477" d="M703.4,1198.3l-156.2,116.5c-8.7-11.7-16.1-24.3-22-37.7L703.4,1198.3L703.4,1198.3"/>
	</g>
	<g>
		<path fill="#0099C6" d="M703.4,1198.3l-124.7,149.7c-11.8-9.8-22.3-20.9-31.5-33.2L703.4,1198.3L703.4,1198.3"/>
	</g>
	<g>
		<path fill="#990099" d="M703.4,1198.3l-80.2,177.6c-16-7.2-31-16.6-44.5-27.8L703.4,1198.3L703.4,1198.3"/>
	</g>
	<g>
		<path fill="#109618" d="M703.4,1198.3l-21.1,193.7c-20.4-2.2-40.4-7.7-59.1-16.1L703.4,1198.3L703.4,1198.3"/>
	</g>
	<g>
		<path fill="#FF9900" d="M703.4,1198.3l69.4,182.1c-28.8,11-59.8,15-90.5,11.6L703.4,1198.3L703.4,1198.3"/>
	</g>
	<g>
		<text transform="matrix(1 0 0 1 933.5952 1134.2836)" fill="#3366CC" font-family="'ApercuPro-Bold'" font-size="15">Al Attara (Landlord)</text>
	</g>
	<g>
		<text transform="matrix(1 0 0 1 1024.9144 1163.5488)" fill="#9E9E9E" font-family="'ApercuPro'" font-size="15">33.3%</text>
	</g>
	<path fill="none" stroke="#000000" stroke-opacity="0.7" d="M830.2,1144.3h68l0,0h169.1"/>
	<circle cx="830.2" cy="1144.3" r="2"/>
	<g>
		<text transform="matrix(1 0 0 1 1013.0939 1256.3431)" fill="#DC3912" font-family="'ApercuPro-Bold'" font-size="15">Amazon</text>
	</g>
	<g>
		<text transform="matrix(1 0 0 1 1027.3138 1285.6113)" fill="#9E9E9E" font-family="'ApercuPro'" font-size="15">10.9%</text>
	</g>
	<path fill="none" stroke="#000000" stroke-opacity="0.7" d="M809.9,1310.8h88.3v-44.5h169.1"/>
	<circle cx="809.9" cy="1310.8" r="2"/>
	<g>
		<text transform="matrix(1 0 0 1 934.6749 1345.6576)" fill="#FF9900" font-family="'ApercuPro-Bold'" font-size="15">The Company Corp</text>
	</g>
	<g>
		<text transform="matrix(1 0 0 1 1034.184 1374.9258)" fill="#9E9E9E" font-family="'ApercuPro'" font-size="15">7.5%</text>
	</g>
	<path fill="none" stroke="#000000" stroke-opacity="0.7" d="M722.7,1373.5h175.6v-17.8h169.1"/>
	<circle cx="722.7" cy="1373.5" r="2"/>
	<g>
		<text transform="matrix(1 0 0 1 348.9031 1345.6576)" fill="#109618" font-family="'ApercuPro-Bold'" font-size="15">B&amp;H Photo</text>
	</g>
	<g>
		<text transform="matrix(1 0 0 1 348.9033 1374.9258)" fill="#9E9E9E" font-family="'ApercuPro'" font-size="15">5%</text>
	</g>
	<path fill="none" stroke="#000000" stroke-opacity="0.7" d="M664.8,1339.4H478.1v16.2H348.9"/>
	<circle cx="665.8" cy="1339.4" r="2"/>
	<g>
		<text transform="matrix(1 0 0 1 348.9031 1256.3431)" fill="#990099" font-family="'ApercuPro-Bold'" font-size="15">Eyebeam</text>
	</g>
	<g>
		<text transform="matrix(1 0 0 1 348.9033 1285.6113)" fill="#9E9E9E" font-family="'ApercuPro'" font-size="15">4.3%</text>
	</g>
	<path fill="none" stroke="#000000" stroke-opacity="0.7" d="M626.2,1323.2H478.1v-56.8H348.9"/>
	<circle cx="627.3" cy="1323.2" r="2"/>
	<g>
		<text transform="matrix(1 0 0 1 348.9031 1191.0419)" fill="#66AA00" font-family="'ApercuPro-Bold'" font-size="15">Staples</text>
	</g>
	<g>
		<text transform="matrix(1 0 0 1 348.9033 1220.3081)" fill="#9E9E9E" font-family="'ApercuPro'" font-size="15">3.7%</text>
	</g>
	<path fill="none" stroke="#000000" stroke-opacity="0.7" d="M584.3,1304.9H496V1201H348.9"/>
	<circle cx="585.4" cy="1304.9" r="2"/>
	<text transform="matrix(1 0 0 1 752.6874 1284.1248)" fill="#FFFFFF" font-family="'ApercuPro'" font-size="15">$2,547</text>
	<text transform="matrix(1 0 0 1 700.3773 1354.6498)" fill="#FFFFFF" font-family="'ApercuPro'" font-size="15">$1,750</text>
	<text transform="matrix(1 0 0 1 348.9031 1431.7725)" fill="#9E9E9E" font-family="'Apercu-Light'" font-size="9.75">source: http://github.com/sfpc/open-administration/01/data/130910-140121/expenses-by-vendor.csv</text>
</g>
<g id="Layer_2">
</g>
</svg>
